HIERARCHY
ROOT Pelvis
{
	OFFSET 0.000000 0.000000 0.000000
	CHANNELS 6 Xposition Yposition Zposition Xrotation Yrotation Zrotation
	JOINT LeftUpLeg_virtual
	{
		OFFSET 0.000000 0.000000 0.000000
		CHANNELS 3 Xrotation Yrotation Zrotation
		JOINT LeftUpLeg
		{
			OFFSET 8.479700 -4.795502 -0.379100
			CHANNELS 3 Xrotation Yrotation Zrotation
			JOINT LeftLeg
			{
				OFFSET 0.024144 -32.555107 0.112900
				CHANNELS 3 Xrotation Yrotation Zrotation
				JOINT LeftFoot
				{
					OFFSET -0.024144 -32.638630 -3.012600
					CHANNELS 3 Xrotation Yrotation Zrotation
					JOINT LeftToeBase
					{
						OFFSET 0.970200 -13.225400 11.864200
						CHANNELS 3 Xrotation Yrotation Zrotation
						End Site
						{
							OFFSET 0 0 0
						}
					}
				}
			}
		}
	}
	JOINT RightUpLeg_virtual
	{
		OFFSET 0.000000 0.000000 0.000000
		CHANNELS 3 Xrotation Yrotation Zrotation
		JOINT RightUpLeg
		{
			OFFSET -8.479700 -4.795502 -0.379100
			CHANNELS 3 Xrotation Yrotation Zrotation
			JOINT RightLeg
			{
				OFFSET -0.023144 -32.555092 0.112900
				CHANNELS 3 Xrotation Yrotation Zrotation
				JOINT RightFoot
				{
					OFFSET 0.023144 -32.638641 -3.012700
					CHANNELS 3 Xrotation Yrotation Zrotation
					JOINT RightToeBase
					{
						OFFSET -0.970200 -13.225400 11.864200
						CHANNELS 3 Xrotation Yrotation Zrotation
						End Site
						{
							OFFSET 0 0 0
						}
					}
				}
			}
		}
	}
	JOINT Hips_virtual
	{
		OFFSET 0.000000 0.000000 0.000000
		CHANNELS 3 Xrotation Yrotation Zrotation
		JOINT Hips
		{
			OFFSET -0.000000 -0.000000 -0.000000
			CHANNELS 3 Xrotation Yrotation Zrotation
			JOINT Spine
			{
				OFFSET 0.000000 7.722000 1.166200
				CHANNELS 3 Xrotation Yrotation Zrotation
				JOINT Spine1
				{
					OFFSET 0.000000 12.024101 0.248800
					CHANNELS 3 Xrotation Yrotation Zrotation
					JOINT Spine2
					{
						OFFSET 0.000000 11.502998 -0.491200
						CHANNELS 3 Xrotation Yrotation Zrotation
						JOINT Neck_virtual
						{
							OFFSET 0.000000 0.000000 0.000000
							CHANNELS 3 Xrotation Yrotation Zrotation
							JOINT Neck
							{
								OFFSET 0.000000 18.430702 -3.123100
								CHANNELS 3 Xrotation Yrotation Zrotation
								JOINT Head
								{
									OFFSET 0.000000 9.051102 1.034000
									CHANNELS 3 Xrotation Yrotation Zrotation
									End Site
									{
										OFFSET 0 0 0
									}
								}
							}
						}
						JOINT LeftShoulder_virtual
						{
							OFFSET 0.000000 0.000000 0.000000
							CHANNELS 3 Xrotation Yrotation Zrotation
							JOINT LeftShoulder
							{
								OFFSET 6.197800 13.665199 -4.064700
								CHANNELS 3 Xrotation Yrotation Zrotation
								JOINT LeftArm
								{
									OFFSET 7.778100 -0.187103 -1.709300
									CHANNELS 3 Xrotation Yrotation Zrotation
									JOINT LeftForeArm
									{
										OFFSET 22.049376 0.000000 0.000000
										CHANNELS 3 Xrotation Yrotation Zrotation
										JOINT LeftHand
										{
											OFFSET 23.009392 0.000000 0.000000
											CHANNELS 3 Xrotation Yrotation Zrotation
											End Site
											{
												OFFSET 0 0 0
											}
										}
									}
								}
							}
						}
						JOINT RightShoulder_virtual
						{
							OFFSET 0.000000 0.000000 0.000000
							CHANNELS 3 Xrotation Yrotation Zrotation
							JOINT RightShoulder
							{
								OFFSET -6.197800 13.665199 -4.064700
								CHANNELS 3 Xrotation Yrotation Zrotation
								JOINT RightArm
								{
									OFFSET -7.778100 -0.187103 -1.709300
									CHANNELS 3 Xrotation Yrotation Zrotation
									JOINT RightForeArm
									{
										OFFSET -22.049376 0.000000 0.000000
										CHANNELS 3 Xrotation Yrotation Zrotation
										JOINT RightHand
										{
											OFFSET -23.009392 0.000000 0.000000
											CHANNELS 3 Xrotation Yrotation Zrotation
											End Site
											{
												OFFSET 0 0 0
											}
										}
									}
								}
							}
						}
					}
				}
			}
		}
	}
}
MOTION
Frames: 8
Frame Time: 0.03333333
2.987459 7.227997 8.714653 0.000000 0.000000 0.000000 87.459985 0.095469 1.048299 -12.590648 6.458317 9.312278 15.829399 10.640495 1.551032 46.278923 28.026071 -17.852245 0.000000 0.000000 0.000000 87.459985 0.095469 1.048299 -13.469933 -7.427300 -11.967028 19.024158 -9.816274 -0.100612 44.787220 -27.704347 27.640903 0.000000 0.000000 0.000000 87.459985 0.095469 1.048299 0.000000 0.000000 0.000000 3.813351 0.580222 -1.112563 0.793258 0.138200 -0.141419 0.000000 0.000000 0.000000 0.792531 0.141294 -0.141442 -5.136614 -13.863062 6.464564 0.000000 0.000000 0.000000 0.792531 0.141294 -0.141442 3.766329 -21.296508 -1.256997 15.600395 -18.626723 -61.954447 0.000010 -18.654963 -0.000007 0.000000 0.000000 0.000000 0.792531 0.141294 -0.141442 0.640300 15.700665 9.197083 13.898628 -3.320483 53.523473 0.000000 31.875318 0.000009 0.000000 0.000000 0.000000 
2.987045 7.229439 8.714775 0.000000 0.000000 0.000000 87.450525 0.099179 1.048753 -12.587622 6.463186 9.316245 15.840824 10.639924 1.549336 46.265676 28.035302 -17.874977 0.000000 0.000000 0.000000 87.450525 0.099179 1.048753 -13.463948 -7.429628 -11.967903 19.024223 -9.809080 -0.096179 44.792179 -27.705626 27.623011 0.000000 0.000000 0.000000 87.450525 0.099179 1.048753 0.000000 0.000000 0.000000 3.821948 0.577299 -1.111995 0.795021 0.137604 -0.141028 0.000000 0.000000 0.000000 0.794326 0.140705 -0.141052 -5.134272 -13.862902 6.460973 0.000000 0.000000 0.000000 0.794326 0.140705 -0.141052 3.774328 -21.342082 -1.254776 15.591968 -18.591048 -61.965279 -0.000001 -18.641617 -0.000001 0.000000 0.000000 0.000000 0.794326 0.140705 -0.141052 0.641018 15.689952 9.189851 13.871899 -3.307260 53.531560 0.000000 31.852082 0.000004 0.000000 0.000000 0.000000 
2.986558 7.231743 8.715323 0.000000 0.000000 0.000000 87.458189 0.103775 1.053733 -12.595382 6.458093 9.307137 15.840925 10.639109 1.559823 46.261465 28.048341 -17.920586 0.000000 0.000000 0.000000 87.458189 0.103775 1.053733 -13.474514 -7.431137 -11.976744 19.030278 -9.814752 -0.094118 44.793060 -27.703196 27.640596 0.000000 0.000000 0.000000 87.458189 0.103775 1.053733 0.000000 0.000000 0.000000 3.812392 0.573467 -1.113615 0.792723 0.136766 -0.140974 0.000000 0.000000 0.000000 0.792048 0.139859 -0.141001 -5.125207 -13.862461 6.457382 0.000000 0.000000 0.000000 0.792048 0.139859 -0.141001 3.780982 -21.376646 -1.256569 15.556888 -18.576969 -61.979684 0.000003 -18.573176 0.000003 0.000000 0.000000 0.000000 0.792048 0.139859 -0.141001 0.640461 15.698713 9.195480 13.865601 -3.329068 53.534910 0.000025 31.844032 0.000007 0.000000 0.000000 0.000000 
2.986147 7.234428 8.715425 0.000000 0.000000 0.000000 87.469561 0.106073 1.058306 -12.603190 6.449528 9.294227 15.830652 10.638946 1.572964 46.269313 28.056353 -17.942808 0.000000 0.000000 0.000000 87.469561 0.106073 1.058306 -13.484651 -7.431848 -11.984871 19.036157 -9.836097 -0.097940 44.790277 -27.697816 27.685771 0.000000 0.000000 0.000000 87.469561 0.106073 1.058306 0.000000 0.000000 0.000000 3.800791 0.570905 -1.113627 0.789975 0.136171 -0.140839 0.000000 0.000000 0.000000 0.789285 0.139252 -0.140869 -5.121404 -13.861859 6.453981 0.000000 0.000000 0.000000 0.789285 0.139252 -0.140869 3.780652 -21.372232 -1.259643 15.494904 -18.603306 -61.991774 0.000007 -18.436600 0.000001 0.000000 0.000000 0.000000 0.789285 0.139252 -0.140869 0.640984 15.712331 9.191112 13.846822 -3.359452 53.548837 -0.000001 31.824474 0.000002 0.000000 0.000000 0.000000 
2.986077 7.237419 8.714250 0.000000 0.000000 0.000000 87.471815 0.106230 1.059118 -12.604384 6.445730 9.288178 15.820656 10.639348 1.579640 46.282967 28.056204 -17.928635 0.000000 0.000000 0.000000 87.471815 0.106230 1.059118 -13.486036 -7.431496 -11.987183 19.044746 -9.857853 -0.104400 44.782525 -27.692812 27.729909 0.000000 0.000000 0.000000 87.471815 0.106230 1.059118 0.000000 0.000000 0.000000 3.798187 0.570266 -1.109546 0.789351 0.135991 -0.140070 0.000000 0.000000 0.000000 0.788648 0.139073 -0.140101 -5.121953 -13.861131 6.450677 0.000000 0.000000 0.000000 0.788648 0.139073 -0.140101 3.778154 -21.356434 -1.261998 15.442665 -18.624179 -61.994779 0.000012 -18.349238 0.000010 0.000000 0.000000 0.000000 0.788648 0.139073 -0.140101 0.641336 15.722648 9.188438 13.818465 -3.398191 53.553160 0.000009 31.811459 0.000007 0.000000 0.000000 0.000000 
2.986344 7.240280 8.712212 0.000000 0.000000 0.000000 87.457765 0.105559 1.056138 -12.594457 6.451117 9.293283 15.819891 10.639819 1.577192 46.290063 28.053685 -17.900980 0.000000 0.000000 0.000000 87.457765 0.105559 1.056138 -13.474861 -7.431553 -11.983157 19.054631 -9.864771 -0.108149 44.772078 -27.691260 27.742507 0.000000 0.000000 0.000000 87.457765 0.105559 1.056138 0.000000 0.000000 0.000000 3.810073 0.571526 -1.102516 0.792108 0.136262 -0.138668 0.000000 0.000000 0.000000 0.791400 0.139363 -0.138699 -5.121580 -13.860183 6.446880 0.000000 0.000000 0.000000 0.791400 0.139363 -0.138699 3.782401 -21.377971 -1.263689 15.409018 -18.569283 -61.990291 0.000006 -18.317324 -0.000001 0.000000 0.000000 0.000000 0.791400 0.139363 -0.138699 0.640835 15.722986 9.193047 13.787238 -3.433439 53.542143 -0.000005 31.810759 0.000010 0.000000 0.000000 0.000000 
2.986556 7.242683 8.710832 0.000000 0.000000 0.000000 87.435157 0.106025 1.053077 -12.577642 6.461090 9.302417 15.826841 10.639871 1.572854 46.283851 28.057097 -17.898302 0.000000 0.000000 0.000000 87.435157 0.106025 1.053077 -13.455661 -7.433931 -11.978645 19.059739 -9.860944 -0.106735 44.764322 -27.692123 27.728999 0.000000 0.000000 0.000000 87.435157 0.106025 1.053077 0.000000 0.000000 0.000000 3.828461 0.573246 -1.096495 0.796335 0.136676 -0.137240 0.000000 0.000000 0.000000 0.795648 0.139802 -0.137271 -5.115521 -13.859010 6.442779 0.000000 0.000000 0.000000 0.795648 0.139802 -0.137271 3.802392 -21.484643 -1.265549 15.394055 -18.473799 -62.000298 0.000004 -18.315620 -0.000002 0.000000 0.000000 0.000000 0.795648 0.139802 -0.137271 0.639794 15.714028 9.202237 13.755835 -3.457569 53.523490 -0.000001 31.811606 -0.000004 0.000000 0.000000 0.000000 
2.986052 7.244865 8.711296 0.000000 0.000000 0.000000 87.419120 0.110964 1.055907 -12.565479 6.463869 9.299334 15.835334 10.638435 1.582415 46.265253 28.079505 -17.964120 0.000000 0.000000 0.000000 87.419120 0.110964 1.055907 -13.434500 -7.442442 -11.983692 19.042525 -9.870361 -0.100521 44.784338 -27.690762 27.718832 0.000000 0.000000 0.000000 87.419120 0.110964 1.055907 0.000000 0.000000 0.000000 3.841041 0.570147 -1.094164 0.799042 0.136061 -0.136133 0.000000 0.000000 0.000000 0.798355 0.139198 -0.136164 -5.105092 -13.857171 6.437377 0.000000 0.000000 0.000000 0.798355 0.139198 -0.136164 3.811591 -21.535404 -1.264522 15.421234 -18.468570 -62.011568 -0.000010 -18.358053 -0.000001 0.000000 0.000000 0.000000 0.798355 0.139198 -0.136164 0.641461 15.704417 9.186538 13.658475 -3.471944 53.530832 0.000001 31.731823 -0.000001 0.000000 0.000000 0.000000 
